<svg width="171" height="124" viewBox="0 0 171 124" fill="none" xmlns="http://www.w3.org/2000/svg">
<ellipse cx="65.5991" cy="62" rx="65.5991" ry="62" fill="#E0A142"/>
<ellipse cx="65.5991" cy="62" rx="65.5991" ry="62" fill="#E0A142"/>
<ellipse cx="65.5991" cy="62" rx="65.5991" ry="62" fill="#D8952D"/>
<ellipse cx="66.3362" cy="61.3034" rx="57.4914" ry="54.3371" fill="#E0A142"/>
<ellipse cx="66.3362" cy="61.3034" rx="57.4914" ry="54.3371" fill="#E0A142"/>
<ellipse cx="66.3362" cy="61.3034" rx="57.4914" ry="54.3371" fill="#E9AF56"/>
<ellipse cx="84.7629" cy="62" rx="65.5991" ry="62" fill="#E0A142"/>
<ellipse cx="84.7629" cy="62" rx="65.5991" ry="62" fill="#E0A142"/>
<ellipse cx="84.7629" cy="62" rx="65.5991" ry="62" fill="#D8952D"/>
<ellipse cx="85.5" cy="61.3034" rx="57.4914" ry="54.3371" fill="#E0A142"/>
<ellipse cx="85.5" cy="61.3034" rx="57.4914" ry="54.3371" fill="#E0A142"/>
<ellipse cx="85.5" cy="61.3034" rx="57.4914" ry="54.3371" fill="#E9AF56"/>
<ellipse cx="105.401" cy="62" rx="65.5991" ry="62" fill="#E0A142"/>
<ellipse cx="105.401" cy="62" rx="65.5991" ry="62" fill="#E0A142"/>
<ellipse cx="105.401" cy="62" rx="65.5991" ry="62" fill="#D8952D"/>
<ellipse cx="106.138" cy="61.3034" rx="57.4914" ry="54.3371" fill="#E0A142"/>
<ellipse cx="106.138" cy="61.3034" rx="57.4914" ry="54.3371" fill="#E0A142"/>
<ellipse cx="106.138" cy="61.3034" rx="57.4914" ry="54.3371" fill="#E9AF56"/>
</svg>
